# xmcd CD database file
#
# Track frame offsets:
#	150
#	3937
#	26259
#	46638
#	66625
#	86318
#	107525
#	125179
#	142617
#	157556
#	175885
#	190601
#
# Disc length: 2856 seconds
#
# Revision: 3
# Processed by: cddbd v1.5.2PL0 Copyright (c) Steve Scherf et al.
# Submitted via: CDex 1.70beta2
#
DISCID=820b260c
DTITLE=Ms. OOJA - VOICE
DYEAR=2011
DGENRE=R&B
TTITLE0=Intro
TTITLE1=Life
TTITLE2=baby don't know why
TTITLE3=Cry day…
TTITLE4=It's OK
TTITLE5=beautiful days
TTITLE6=Miss U
TTITLE7=Lost in Love
TTITLE8=Shout out!!
TTITLE9=Love Again
TTITLE10=What's goin' on feat. EL LATINO
TTITLE11=Dear
EXTD=YEAR: 2011
EXTT0=
EXTT1=
EXTT2=
EXTT3=
EXTT4=
EXTT5=
EXTT6=
EXTT7=
EXTT8=
EXTT9=
EXTT10=
EXTT11=
PLAYORDER=
